<mxfile host="app.diagrams.net" modified="2020-11-28T09:19:02.244Z" agent="5.0 (Windows NT 10.0; Win64; x64) AppleWebKit/537.36 (KHTML, like Gecko) Chrome/86.0.4240.198 Safari/537.36" etag="57aFbyhOUN8XHG9HRfDx" version="13.10.4" type="github">
  <diagram id="MhX8wjc3IY4OBWXBQNPA" name="Page-1">
    <mxGraphModel dx="877" dy="677" grid="1" gridSize="10" guides="1" tooltips="1" connect="1" arrows="1" fold="1" page="1" pageScale="1" pageWidth="827" pageHeight="1169" math="0" shadow="0">
      <root>
        <mxCell id="0" />
        <mxCell id="1" parent="0" />
        <mxCell id="reGPUMcSHRJHouMHTqwi-4" style="edgeStyle=orthogonalEdgeStyle;rounded=0;orthogonalLoop=1;jettySize=auto;html=1;" edge="1" parent="1" source="reGPUMcSHRJHouMHTqwi-1" target="reGPUMcSHRJHouMHTqwi-3">
          <mxGeometry relative="1" as="geometry" />
        </mxCell>
        <mxCell id="reGPUMcSHRJHouMHTqwi-1" value="Iterator&lt;br&gt;&lt;br&gt;next()&lt;br&gt;hasNext()&lt;br&gt;remove()&lt;br&gt;" style="rounded=0;whiteSpace=wrap;html=1;fillColor=#d5e8d4;strokeColor=#82b366;" vertex="1" parent="1">
          <mxGeometry x="124.5" y="180" width="191" height="80" as="geometry" />
        </mxCell>
        <mxCell id="reGPUMcSHRJHouMHTqwi-6" style="edgeStyle=orthogonalEdgeStyle;rounded=0;orthogonalLoop=1;jettySize=auto;html=1;entryX=0.5;entryY=0;entryDx=0;entryDy=0;" edge="1" parent="1" source="reGPUMcSHRJHouMHTqwi-2" target="reGPUMcSHRJHouMHTqwi-5">
          <mxGeometry relative="1" as="geometry" />
        </mxCell>
        <mxCell id="reGPUMcSHRJHouMHTqwi-2" value="ICollection&lt;br&gt;&lt;br&gt;add(Object obj)&lt;br&gt;remove(Object obj)&lt;br&gt;Iterator iterator()" style="rounded=0;whiteSpace=wrap;html=1;fillColor=#d5e8d4;strokeColor=#82b366;" vertex="1" parent="1">
          <mxGeometry x="420" y="175" width="270" height="90" as="geometry" />
        </mxCell>
        <mxCell id="reGPUMcSHRJHouMHTqwi-3" value="ConcreteIterator&lt;br&gt;&lt;br&gt;List list;&lt;br&gt;int index;&lt;br&gt;&lt;br&gt;public ConcreteIterator(List list){&lt;br&gt;this.list = list;&lt;br&gt;}" style="rounded=0;whiteSpace=wrap;html=1;fillColor=#dae8fc;strokeColor=#6c8ebf;" vertex="1" parent="1">
          <mxGeometry x="120" y="380" width="200" height="120" as="geometry" />
        </mxCell>
        <mxCell id="reGPUMcSHRJHouMHTqwi-5" value="MyCollection&lt;br&gt;&lt;br&gt;Iterator iterator(){&lt;br&gt;return new ConcreteIterator(list)&lt;br&gt;}" style="rounded=0;whiteSpace=wrap;html=1;fillColor=#dae8fc;strokeColor=#6c8ebf;" vertex="1" parent="1">
          <mxGeometry x="415" y="380" width="280" height="120" as="geometry" />
        </mxCell>
        <mxCell id="reGPUMcSHRJHouMHTqwi-7" value="&lt;font style=&quot;font-size: 18px&quot;&gt;迭代器模式&lt;/font&gt;" style="text;html=1;strokeColor=none;fillColor=none;align=center;verticalAlign=middle;whiteSpace=wrap;rounded=0;" vertex="1" parent="1">
          <mxGeometry x="50" y="80" width="160" height="50" as="geometry" />
        </mxCell>
      </root>
    </mxGraphModel>
  </diagram>
</mxfile>
